<svg width="24" height="24" viewBox="0 0 24 24" fill="none" xmlns="http://www.w3.org/2000/svg">
<rect width="24" height="24" rx="12" fill="#1877F2"/>
<path d="M0 12C0 5.37258 5.37258 0 12 0C18.6274 0 24 5.37258 24 12C24 18.6274 18.6274 24 12 24C5.37258 24 0 18.6274 0 12Z" fill="#1877F2"/>
<path d="M13.3857 24V14.9989H15.8707L16.2 11.8971H13.3857L13.3899 10.3446C13.3899 9.53565 13.4668 9.10216 14.6289 9.10216H16.1825V6H13.6971C10.7117 6 9.66093 7.50471 9.66093 10.0352V11.8975H7.80005V14.9993H9.66093V24H13.3857Z" fill="white"/>
</svg>
